<?xml version="1.0" encoding="UTF-8" standalone="no"?>
<!-- Created with Inkscape (http://www.inkscape.org/) -->

<svg
   width="800"
   height="800"
   viewBox="0 0 211.66666 240"
   version="1.1"
   id="svg249"
   inkscape:version="1.1.2 (0a00cf5339, 2022-02-04)"
   sodipodi:docname="drawing.svg"
   xmlns:inkscape="http://www.inkscape.org/namespaces/inkscape"
   xmlns:sodipodi="http://sodipodi.sourceforge.net/DTD/sodipodi-0.dtd"
   xmlns="http://www.w3.org/2000/svg"
   xmlns:svg="http://www.w3.org/2000/svg">
  <sodipodi:namedview
     id="namedview251"
     pagecolor="#ffffff"
     bordercolor="#666666"
     borderopacity="1.0"
     inkscape:pageshadow="2"
     inkscape:pageopacity="0.0"
     inkscape:pagecheckerboard="0"
     inkscape:document-units="mm"
     showgrid="false"
     inkscape:zoom="0.6440867"
     inkscape:cx="385.04133"
     inkscape:cy="437.05296"
     inkscape:window-width="1920"
     inkscape:window-height="908"
     inkscape:window-x="0"
     inkscape:window-y="25"
     inkscape:window-maximized="1"
     inkscape:current-layer="layer1"
     width="800px"
     units="px"
     height="120mm" />
  <defs
     id="defs246">
    <linearGradient
       id="SVGID_1_"
       gradientUnits="userSpaceOnUse"
       x1="472.15701"
       y1="531.52789"
       x2="915.42682"
       y2="531.52789">
      <stop
         offset="0"
         style="stop-color:#032B5C"
         id="stop4" />
      <stop
         offset="1"
         style="stop-color:#037194"
         id="stop6" />
    </linearGradient>
    <linearGradient
       id="SVGID_00000175315532256032309630000016324562377130019775_"
       gradientUnits="userSpaceOnUse"
       x1="749.51361"
       y1="517.01251"
       x2="902.82941"
       y2="517.01251">
      <stop
         offset="5.540901e-07"
         style="stop-color:#197B96"
         id="stop15" />
      <stop
         offset="1"
         style="stop-color:#22B7D7"
         id="stop17" />
    </linearGradient>
    <linearGradient
       id="SVGID_00000155847579757717152580000015753544037256537511_"
       gradientUnits="userSpaceOnUse"
       x1="584.56628"
       y1="552.10858"
       x2="673.41742"
       y2="502.0661">
      <stop
         offset="5.540901e-07"
         style="stop-color:#197B96"
         id="stop22" />
      <stop
         offset="1"
         style="stop-color:#22B7D7"
         id="stop24" />
    </linearGradient>
    <linearGradient
       id="SVGID_00000117648382425116718160000010537614064104084385_"
       gradientUnits="userSpaceOnUse"
       x1="603.79602"
       y1="635.76318"
       x2="789.25708"
       y2="621.95453">
      <stop
         offset="0.1028"
         style="stop-color:#FF002B"
         id="stop33" />
      <stop
         offset="0.5441"
         style="stop-color:#FAFFE8"
         id="stop35" />
      <stop
         offset="1"
         style="stop-color:#70C4D4"
         id="stop37" />
    </linearGradient>
    <linearGradient
       id="SVGID_00000029725066249410337440000006111064557078358678_"
       gradientUnits="userSpaceOnUse"
       x1="467.28351"
       y1="566.7887"
       x2="866.17963"
       y2="562.26221">
      <stop
         offset="0.3173"
         style="stop-color:#FF002B"
         id="stop48" />
      <stop
         offset="0.6603"
         style="stop-color:#FAFFE8"
         id="stop50" />
      <stop
         offset="1"
         style="stop-color:#70C4D4"
         id="stop52" />
    </linearGradient>
    <linearGradient
       id="SVGID_00000119107778918897647540000005003324356725004444_"
       gradientUnits="userSpaceOnUse"
       x1="559.35522"
       y1="357.36139"
       x2="915.84668"
       y2="357.36139">
      <stop
         offset="0"
         style="stop-color:#FF002B"
         id="stop65" />
      <stop
         offset="0.5441"
         style="stop-color:#FAFFE8"
         id="stop67" />
      <stop
         offset="1"
         style="stop-color:#70C4D4"
         id="stop69" />
    </linearGradient>
    <linearGradient
       id="SVGID_00000165222630930098587830000012266459005389355454_"
       gradientUnits="userSpaceOnUse"
       x1="1572.2738"
       y1="-69.380096"
       x2="1602.8998"
       y2="-69.380096"
       gradientTransform="matrix(0.4807,-0.8769,0.8769,0.4807,-153.7313,1872.6613)">
      <stop
         offset="0"
         style="stop-color:#FF002B"
         id="stop78" />
      <stop
         offset="0.5441"
         style="stop-color:#FAFFE8"
         id="stop80" />
      <stop
         offset="1"
         style="stop-color:#70C4D4"
         id="stop82" />
    </linearGradient>
  </defs>
  <g
     inkscape:label="Layer 1"
     inkscape:groupmode="layer"
     id="layer1">
    <g
       id="g89"
       transform="matrix(0.26458333,0,0,0.26458333,-74.925658,-26.899852)">
      <linearGradient
         id="linearGradient178"
         gradientUnits="userSpaceOnUse"
         x1="472.15701"
         y1="531.52789"
         x2="915.42682"
         y2="531.52789">
        <stop
           offset="0"
           style="stop-color:#032B5C"
           id="stop174" />
        <stop
           offset="1"
           style="stop-color:#037194"
           id="stop176" />
      </linearGradient>
      <ellipse
         class="st0"
         cx="693.78998"
         cy="531.53003"
         rx="221.63"
         ry="217.75999"
         id="ellipse9"
         style="fill:url(#SVGID_1_)" />
      <path
         class="st1"
         d="m 500.22,464 c 0,0 -2.66,-7.77 0,-13.15 0,0 21.26,-45.67 67.9,-76.03 0,0 1.21,-1.67 4.11,0 0,0 23.68,10.04 33.34,10.04 0,0 13.05,0.48 21.75,-2.63 0,0 16.19,-6.22 31.17,-2.15 0,0 4.59,1.67 10.39,6.69 0,0 7.25,7.17 20.78,9.8 0,0 4.59,0.72 8.22,0.96 0,0 8.94,-1.2 9.18,8.61 l -2.42,27.02 c 0,0 -1.21,11.24 -15.95,10.28 0,0 -22.47,0.72 -41.32,15.06 0,0 -16.67,12.19 -18.12,24.63 0,0 0.72,10.28 -14.98,10.52 l -20.66,2.75 c 0,0 -12.56,0.48 -7.61,16.62 0,0 5.68,16.14 16.67,26.78 0,0 3.02,3.35 13.65,3.83 0,0 14.14,-2.15 27.91,-0.72 0,0 39.39,2.75 65.36,30.48 0,0 14.62,12.07 -3.75,42.2 l -24.53,32.4 c 0,0 -7.97,8.73 -10.39,28.09 0,0 -2.3,23.67 -11.36,29.53 0,0 -9.42,13.63 -20.06,-5.26 0,0 -8.34,-12.55 -12.08,-38.73 0,0 -5.2,-29.29 -13.53,-37.42 0,0 -18,-14.23 -21.63,-18.65 0,0 -8.7,-10.16 -7.97,-31.2 l -0.24,-12.91 c 0,0 -3.75,-17.81 -21.14,-27.49 0,0 -25.73,-13.03 -32.26,-23.19 0,0 -14.5,-15.06 -15.95,-18.17 0.02,-0.02 -14.48,-24.05 -14.48,-28.59 z"
         id="path11" />
      <path
         class="st1"
         d="m 775.9,439.51 c 0,0 -8.14,2.58 -8.14,-6.77 0,0 -7.08,-27.39 6.02,-34.16 0,0 3.37,-3.16 43.9,-18.04 0,0 3.14,-1.49 7.92,3.58 0,0 41.29,35.4 54.57,74.31 0,0 26.29,62.83 7.7,120.84 0,0 -15.14,61.14 -43.29,74.43 0,0 -21.52,10.83 -32.13,-2.9 0,0 -3.45,-5.8 0,-11.84 0,0 2.66,-7.25 2.92,-33.83 0,0 1.59,-29 -7.7,-46.64 0,0 -4.25,-8.7 -30.27,-8.46 0,0 -25.49,1.93 -32.13,-8.94 0,0 -16.2,-7.73 -12.48,-24.89 0,0 -0.8,-3.63 14.87,-25.38 0,0 1.69,-4.05 2.12,-14.74 0,0 0.27,-4.47 5.41,-9.2 0.68,-0.63 1.6,-1 2.28,-1.62 1.69,-1.55 6.52,-4.23 18.07,-0.78 0,0 14.34,2.9 36.65,2.66 0,0 23.1,2.42 27.88,-9.43 0,0 6.11,-17.88 -9.56,-20.06 z"
         id="path13" />
      <linearGradient
         id="linearGradient187"
         gradientUnits="userSpaceOnUse"
         x1="749.51361"
         y1="517.01251"
         x2="902.82941"
         y2="517.01251">
        <stop
           offset="5.540901e-07"
           style="stop-color:#197B96"
           id="stop183" />
        <stop
           offset="1"
           style="stop-color:#22B7D7"
           id="stop185" />
      </linearGradient>
      <path
         style="fill:url(#SVGID_00000175315532256032309630000016324562377130019775_)"
         d="m 790.76,435.31 c 0,0 -7.69,2.65 -7.69,-6.95 0,0 -6.69,-28.13 5.69,-35.08 0,0 3.18,-3.25 41.48,-18.53 0,0 2.97,-1.53 7.48,3.68 0,0 39.01,36.37 51.55,76.33 0,0 24.84,64.54 7.28,124.12 0,0 -14.3,62.8 -40.89,76.46 0,0 -20.33,11.13 -30.36,-2.98 0,0 -3.26,-5.96 0,-12.16 0,0 2.51,-7.45 2.76,-34.75 0,0 1.51,-29.79 -7.28,-47.91 0,0 -4.01,-8.94 -28.6,-8.69 0,0 -24.08,1.99 -30.36,-9.18 0,0 -15.3,-7.94 -11.79,-25.57 0,0 -0.75,-3.72 14.05,-26.06 0,0 1.6,-4.16 2.01,-15.14 0,0 0.25,-4.59 5.11,-9.45 0.64,-0.64 1.51,-1.02 2.15,-1.67 1.6,-1.59 6.16,-4.34 17.08,-0.8 0,0 13.55,2.98 34.62,2.73 0,0 21.83,2.48 26.34,-9.68 0,0 5.77,-18.37 -9.03,-20.6 z"
         id="path20" />
      <linearGradient
         id="linearGradient194"
         gradientUnits="userSpaceOnUse"
         x1="584.56628"
         y1="552.10858"
         x2="673.41742"
         y2="502.0661">
        <stop
           offset="5.540901e-07"
           style="stop-color:#197B96"
           id="stop190" />
        <stop
           offset="1"
           style="stop-color:#22B7D7"
           id="stop192" />
      </linearGradient>
      <path
         style="fill:url(#SVGID_00000155847579757717152580000015753544037256537511_)"
         d="m 509.98,453.31 c 0,0 -2.66,-7.77 0,-13.15 0,0 21.26,-45.67 67.9,-76.03 0,0 1.21,-1.67 4.11,0 0,0 23.68,10.04 33.34,10.04 0,0 13.05,0.48 21.75,-2.63 0,0 16.19,-6.22 31.17,-2.15 0,0 4.59,1.67 10.39,6.69 0,0 7.25,7.17 20.78,9.8 0,0 4.59,0.72 8.22,0.96 0,0 8.94,-1.2 9.18,8.61 l -2.42,27.02 c 0,0 -1.21,11.24 -15.95,10.28 0,0 -22.47,0.72 -41.32,15.06 0,0 -16.67,12.19 -18.12,24.63 0,0 0.72,10.28 -14.98,10.52 l -20.66,2.75 c 0,0 -12.56,0.48 -7.61,16.62 0,0 5.68,16.14 16.67,26.78 0,0 3.02,3.35 13.65,3.83 0,0 14.14,-2.15 27.91,-0.72 0,0 39.39,2.75 65.36,30.48 0,0 14.62,12.07 -3.75,42.2 l -24.53,32.4 c 0,0 -7.97,8.73 -10.39,28.09 0,0 -2.3,23.67 -11.36,29.53 0,0 -9.42,13.63 -20.06,-5.26 0,0 -8.34,-12.55 -12.08,-38.73 0,0 -5.2,-29.29 -13.53,-37.42 0,0 -18,-14.23 -21.63,-18.65 0,0 -8.7,-10.16 -7.97,-31.2 l -0.24,-12.91 c 0,0 -3.75,-17.81 -21.14,-27.49 0,0 -25.73,-13.03 -32.26,-23.19 0,0 -14.5,-15.06 -15.95,-18.17 0.02,-0.02 -14.48,-24.04 -14.48,-28.59 z"
         id="path27" />
      <g
         id="g31">
        <path
           class="st4"
           d="m 613.81,541.58 c -0.74,-3.42 -0.88,-6.97 -0.52,-10.64 0.43,-3.64 1.41,-7.52 4.09,-11.2 1.36,-1.81 3.2,-3.52 5.45,-4.71 0.56,-0.28 1.13,-0.61 1.73,-0.82 0.59,-0.22 1.2,-0.43 1.81,-0.63 0.61,-0.18 1.21,-0.29 1.84,-0.42 l 0.93,-0.18 0.9,-0.09 c 4.92,-0.45 9.33,0.6 13.2,1.94 3.87,1.38 7.41,3.12 10.7,5.03 1.65,0.94 3.17,1.93 4.74,2.92 1.49,1 3.02,2 4.47,3.04 5.85,4.12 11.27,8.52 16.52,13.09 10.53,9.12 20.16,19.01 29.25,29.38 9.08,10.37 17.51,21.29 25.29,32.69 7.78,11.39 14.91,23.27 21.22,35.61 6.31,12.35 11.83,25.16 16.21,38.41 4.4,13.24 7.65,26.95 9.28,40.87 0.46,3.46 0.68,6.98 0.86,10.47 0.1,1.74 0.19,3.48 0.17,5.24 0.03,1.75 0,3.5 -0.03,5.24 0,1.74 -0.08,3.48 -0.23,5.23 l -0.42,5.2 c -0.07,0.86 -0.19,1.73 -0.33,2.59 -0.13,0.86 -0.25,1.72 -0.41,2.58 -0.29,1.72 -0.59,3.42 -0.94,5.12 -1.33,-3.26 -2.35,-6.48 -3.58,-9.65 l -1.84,-4.71 c -0.31,-0.78 -0.6,-1.56 -0.89,-2.34 -0.29,-0.78 -0.64,-1.54 -0.96,-2.31 -1.37,-3.06 -2.44,-6.14 -3.9,-9.13 -1.37,-3 -2.62,-6 -4.09,-8.93 -5.55,-11.8 -11.61,-23.2 -17.93,-34.41 -12.7,-22.39 -26.58,-44.02 -41.11,-65.37 -7.27,-10.67 -14.7,-21.25 -22.3,-31.74 -7.61,-10.47 -15.31,-20.93 -23.22,-31.13 -3.95,-5.1 -7.96,-10.17 -12.02,-15 l -3.06,-3.57 c -1.02,-1.12 -2.05,-2.29 -3.05,-3.37 -2.01,-2.15 -4.06,-4.11 -6.12,-5.79 -2.06,-1.68 -4.1,-2.91 -5.87,-3.6 -0.89,-0.34 -1.74,-0.58 -2.6,-0.55 -0.86,0.01 -1.85,0.18 -2.89,0.7 -2.05,1.08 -4.2,3.3 -5.89,5.96 -1.75,2.7 -3.21,5.75 -4.46,8.98 z"
           id="path29" />
      </g>
      <g
         id="g42">
        <linearGradient
           id="linearGradient205"
           gradientUnits="userSpaceOnUse"
           x1="603.79602"
           y1="635.76318"
           x2="789.25708"
           y2="621.95453">
          <stop
             offset="0.1028"
             style="stop-color:#FF002B"
             id="stop199" />
          <stop
             offset="0.5441"
             style="stop-color:#FAFFE8"
             id="stop201" />
          <stop
             offset="1"
             style="stop-color:#70C4D4"
             id="stop203" />
        </linearGradient>
        <path
           style="fill:url(#SVGID_00000117648382425116718160000010537614064104084385_)"
           d="m 613.67,534.62 c -0.73,-3.43 -0.86,-7 -0.48,-10.68 0.45,-3.65 1.47,-7.54 4.18,-11.2 1.37,-1.8 3.23,-3.49 5.47,-4.68 0.56,-0.28 1.13,-0.6 1.72,-0.82 0.59,-0.22 1.19,-0.43 1.8,-0.63 0.61,-0.19 1.21,-0.29 1.83,-0.43 l 0.93,-0.18 c 0.3,-0.04 0.6,-0.06 0.9,-0.09 4.9,-0.47 9.32,0.54 13.22,1.84 3.89,1.35 7.47,3.06 10.77,4.96 1.68,0.93 3.19,1.92 4.79,2.9 1.5,0.99 3.03,1.99 4.51,3.02 5.9,4.09 11.36,8.47 16.66,13.03 10.62,9.09 20.34,18.95 29.53,29.3 9.17,10.35 17.7,21.25 25.57,32.64 7.88,11.38 15.09,23.26 21.5,35.61 6.4,12.35 12.01,25.18 16.47,38.46 4.48,13.26 7.8,27.01 9.48,40.97 0.48,3.47 0.71,7 0.9,10.5 0.25,3.49 0.21,7.03 0.17,10.52 0,1.74 -0.07,3.49 -0.22,5.25 l -0.42,5.22 c -0.07,0.86 -0.19,1.73 -0.33,2.6 -0.13,0.87 -0.25,1.73 -0.41,2.59 -0.29,1.72 -0.58,3.43 -0.94,5.13 -1.33,-3.27 -2.35,-6.51 -3.58,-9.68 l -1.84,-4.72 c -0.31,-0.78 -0.6,-1.56 -0.89,-2.34 -0.29,-0.78 -0.65,-1.55 -0.97,-2.32 -1.37,-3.07 -2.46,-6.15 -3.92,-9.15 -1.38,-3.01 -2.64,-6.01 -4.12,-8.95 -5.6,-11.82 -11.71,-23.23 -18.1,-34.45 -12.83,-22.4 -26.87,-44.03 -41.57,-65.36 -7.35,-10.66 -14.88,-21.23 -22.57,-31.7 -7.7,-10.46 -15.49,-20.9 -23.5,-31.07 -4,-5.08 -8.05,-10.15 -12.16,-14.96 -4.15,-4.85 -8.19,-9.32 -12.37,-12.64 -2.08,-1.66 -4.15,-2.89 -5.96,-3.58 -0.91,-0.33 -1.78,-0.57 -2.66,-0.53 -0.88,0.02 -1.88,0.19 -2.93,0.71 -2.06,1.08 -4.23,3.28 -5.94,5.95 -1.79,2.66 -3.27,5.71 -4.52,8.96 z"
           id="path40" />
      </g>
      <g
         id="g59">
        <g
           id="g46">
          <path
             class="st4"
             d="m 853.16,449.6 c -7.3,21.42 -15.38,42.62 -24.4,63.45 l -3.41,7.8 c -1.14,2.6 -2.36,5.17 -3.54,7.75 -1.2,2.58 -2.35,5.16 -3.59,7.72 l -3.73,7.67 -1.87,3.83 -1.95,3.8 -3.9,7.59 -4.06,7.52 c -1.36,2.5 -2.69,5.01 -4.13,7.48 l -4.24,7.42 c -1.43,2.46 -2.94,4.89 -4.4,7.34 -2.89,4.91 -6.06,9.68 -9.1,14.5 -6.31,9.53 -12.92,18.88 -19.91,27.96 -14.13,18.05 -29.72,35.12 -47.53,49.9 -8.89,7.38 -18.3,14.19 -28.25,20.19 -9.96,5.97 -20.47,11.1 -31.43,15.08 -21.83,8.07 -45.89,11.01 -68.8,6.87 l -4.27,-0.83 c -1.41,-0.32 -2.82,-0.69 -4.22,-1.04 -0.7,-0.18 -1.41,-0.34 -2.1,-0.54 l -2.08,-0.63 c -1.38,-0.44 -2.78,-0.81 -4.13,-1.31 -5.47,-1.86 -10.74,-4.22 -15.85,-6.84 -5.08,-2.68 -9.91,-5.77 -14.53,-9.1 -4.57,-3.41 -8.88,-7.12 -12.93,-11.06 -3.98,-4.02 -7.75,-8.22 -11.16,-12.69 -3.37,-4.49 -6.57,-9.1 -9.32,-13.97 l -1.06,-1.8 -0.98,-1.85 -1.95,-3.69 -1.79,-3.77 c -0.29,-0.63 -0.6,-1.25 -0.89,-1.89 l -0.81,-1.92 -1.61,-3.84 -1.45,-3.9 -0.72,-1.95 -0.64,-1.97 -1.28,-3.94 1.61,3.82 0.8,1.91 0.88,1.87 1.77,3.73 1.91,3.66 0.96,1.82 c 0.33,0.6 0.69,1.19 1.03,1.78 l 2.07,3.55 2.22,3.46 1.11,1.72 1.19,1.67 c 3.08,4.52 6.58,8.72 10.19,12.77 3.65,4.03 7.61,7.73 11.71,11.24 4.17,3.42 8.54,6.57 13.08,9.4 4.59,2.75 9.32,5.23 14.21,7.3 4.92,2.01 9.92,3.76 15.04,5.03 1.27,0.36 2.57,0.58 3.86,0.87 l 1.93,0.42 c 0.64,0.13 1.3,0.22 1.95,0.33 1.3,0.2 2.59,0.43 3.89,0.62 l 3.91,0.42 c 5.22,0.44 10.46,0.64 15.68,0.3 l 1.95,-0.09 c 0.65,-0.04 1.3,-0.12 1.95,-0.18 l 3.89,-0.39 3.87,-0.58 1.93,-0.29 1.92,-0.39 3.83,-0.78 3.79,-0.96 1.89,-0.48 1.87,-0.57 3.74,-1.14 c 4.93,-1.71 9.81,-3.54 14.53,-5.79 9.48,-4.39 18.49,-9.77 27,-15.91 8.49,-6.16 16.48,-13.05 23.99,-20.45 15.04,-14.81 28.05,-31.72 39.69,-49.5 5.75,-8.96 11.15,-18.16 16.27,-27.52 2.46,-4.75 5.03,-9.42 7.34,-14.25 1.17,-2.4 2.39,-4.78 3.53,-7.2 l 3.38,-7.28 c 1.15,-2.41 2.21,-4.88 3.28,-7.33 l 3.2,-7.37 3.05,-7.44 1.53,-3.72 1.45,-3.76 2.89,-7.51 c 0.96,-2.5 1.84,-5.05 2.76,-7.57 0.9,-2.53 1.85,-5.04 2.71,-7.58 l 2.59,-7.64 c 6.84,-20.39 12.78,-41.11 17.99,-62.05 z"
             id="path44" />
        </g>
        <g
           id="g57">
          <linearGradient
             id="linearGradient217"
             gradientUnits="userSpaceOnUse"
             x1="467.28351"
             y1="566.7887"
             x2="866.17963"
             y2="562.26221">
            <stop
               offset="0.3173"
               style="stop-color:#FF002B"
               id="stop211" />
            <stop
               offset="0.6603"
               style="stop-color:#FAFFE8"
               id="stop213" />
            <stop
               offset="1"
               style="stop-color:#70C4D4"
               id="stop215" />
          </linearGradient>
          <path
             style="fill:url(#SVGID_00000029725066249410337440000006111064557078358678_)"
             d="m 864.54,417.44 c -13.54,45.74 -30.01,90.87 -51.28,134.03 -1.29,2.71 -2.71,5.37 -4.07,8.05 -1.39,2.67 -2.73,5.36 -4.16,8.01 -2.91,5.29 -5.71,10.6 -8.79,15.8 -5.97,10.47 -12.44,20.7 -19.26,30.7 -6.79,10.02 -14.12,19.71 -21.92,29.05 -7.8,9.33 -16.1,18.29 -25,26.68 -17.77,16.75 -38.15,31.26 -60.93,40.95 -11.35,4.88 -23.34,8.36 -35.54,10.28 -1.52,0.28 -3.06,0.44 -4.59,0.62 -1.54,0.16 -3.06,0.39 -4.6,0.5 -3.09,0.2 -6.15,0.46 -9.24,0.44 -3.08,0.11 -6.16,-0.06 -9.23,-0.16 -1.54,-0.07 -3.07,-0.25 -4.6,-0.37 l -2.29,-0.2 -2.28,-0.31 c -12.17,-1.56 -24.03,-4.98 -35.07,-9.95 -11.05,-4.98 -21.27,-11.52 -30.38,-19.24 -18.24,-15.46 -31.94,-35.56 -40.12,-57.39 10.1,21.02 25.32,39.34 43.95,52.45 9.3,6.56 19.43,11.8 30.03,15.48 10.59,3.67 21.63,5.79 32.68,6.21 l 2.07,0.1 2.07,-0.01 c 1.38,-0.02 2.76,0.02 4.13,-0.04 2.75,-0.16 5.5,-0.24 8.23,-0.6 2.74,-0.22 5.45,-0.71 8.16,-1.13 1.35,-0.22 2.69,-0.55 4.04,-0.81 1.34,-0.28 2.69,-0.54 4.01,-0.92 10.63,-2.68 20.9,-6.67 30.55,-11.9 19.36,-10.37 36.38,-24.89 51.09,-41.48 7.37,-8.3 14.18,-17.13 20.55,-26.3 6.36,-9.17 12.29,-18.67 17.73,-28.49 5.47,-9.8 10.61,-19.79 15.29,-30.05 2.43,-5.07 4.6,-10.29 6.87,-15.45 1.11,-2.59 2.14,-5.23 3.22,-7.83 1.05,-2.62 2.16,-5.21 3.14,-7.87 16.29,-42.19 28.08,-86.26 37.05,-130.93 z"
             id="path55" />
        </g>
      </g>
      <g
         id="g63">
        <path
           class="st4"
           d="m 582.68,340.58 c -3.82,-1.8 -7.5,-4.32 -10.32,-8.21 -1.37,-1.95 -2.47,-4.28 -2.99,-6.89 -0.53,-2.6 -0.4,-5.43 0.28,-8.09 0.67,-2.67 1.88,-5.16 3.4,-7.34 1.51,-2.19 3.3,-4.12 5.22,-5.82 3.89,-3.38 8.35,-5.82 13.01,-7.63 2.34,-0.88 4.74,-1.58 7.18,-2.12 2.33,-0.48 4.64,-0.9 6.98,-1.18 4.66,-0.57 9.35,-0.75 13.97,-0.59 9.25,0.31 18.26,1.81 26.9,4 8.66,2.16 16.99,5.01 25.06,8.21 8.07,3.2 15.88,6.78 23.5,10.59 15.23,7.61 29.71,16.09 43.78,24.83 14.08,8.74 27.76,17.77 41.31,26.66 13.55,8.88 26.97,17.66 40.57,25.68 13.62,7.93 27.4,15.28 41.91,19.8 7.25,2.26 14.71,3.7 22.39,3.75 7.67,0.05 15.58,-1.49 23.4,-4.75 -5.5,6.42 -13.15,11.41 -21.68,14.31 -4.26,1.5 -8.71,2.43 -13.21,3.03 -4.5,0.58 -9.03,0.7 -13.53,0.58 -9.01,-0.29 -17.84,-1.81 -26.37,-3.93 -8.54,-2.12 -16.79,-4.91 -24.82,-8.04 -16.05,-6.28 -31.18,-13.95 -45.8,-22.05 -14.62,-8.11 -28.73,-16.72 -42.61,-25.32 -13.89,-8.6 -27.54,-17.23 -41.22,-25.35 -13.67,-8.1 -27.39,-15.72 -41.33,-21.69 -6.98,-2.95 -14.01,-5.48 -21.09,-7.2 -3.54,-0.85 -7.09,-1.52 -10.65,-1.9 -1.78,-0.22 -3.57,-0.32 -5.33,-0.39 -1.65,-0.09 -3.31,-0.06 -4.95,0.08 -3.3,0.24 -6.57,0.96 -9.49,2.21 -2.97,1.2 -5.5,2.99 -7.22,5.28 -0.85,1.16 -1.45,2.48 -1.76,3.98 -0.32,1.51 -0.28,3.21 0.12,4.97 0.72,3.57 2.86,7.16 5.39,10.53 z"
           id="path61" />
      </g>
      <g
         id="g74">
        <linearGradient
           id="linearGradient230"
           gradientUnits="userSpaceOnUse"
           x1="559.35522"
           y1="357.36139"
           x2="915.84668"
           y2="357.36139">
          <stop
             offset="0"
             style="stop-color:#FF002B"
             id="stop224" />
          <stop
             offset="0.5441"
             style="stop-color:#FAFFE8"
             id="stop226" />
          <stop
             offset="1"
             style="stop-color:#70C4D4"
             id="stop228" />
        </linearGradient>
        <path
           style="fill:url(#SVGID_00000119107778918897647540000005003324356725004444_)"
           d="m 582.68,340.58 c -1.53,-1.42 -2.98,-2.97 -4.3,-4.68 -1.29,-1.72 -2.44,-3.6 -3.41,-5.65 -0.93,-2.06 -1.67,-4.29 -2.08,-6.68 -0.39,-2.39 -0.42,-4.93 -0.01,-7.5 0.77,-5.17 3.66,-10.19 7.51,-13.9 3.9,-3.69 8.59,-6.26 13.32,-7.91 1.19,-0.44 2.38,-0.76 3.59,-1.11 1.19,-0.3 2.43,-0.61 3.53,-0.81 2.26,-0.46 4.53,-0.82 6.81,-1.08 2.28,-0.27 4.56,-0.42 6.85,-0.54 2.28,-0.08 4.56,-0.1 6.82,-0.04 9.06,0.26 17.92,1.6 26.46,3.6 17.11,4.02 33.03,10.45 48.2,17.63 15.17,7.22 29.59,15.34 43.61,23.74 28.05,16.78 54.47,34.94 81.38,50.9 13.49,7.88 27.09,15.29 41.4,20.5 7.16,2.61 14.51,4.58 22.14,5.54 7.63,0.93 15.56,0.69 23.71,-1.1 -6.45,5.31 -14.59,8.89 -23.13,10.77 -8.56,1.92 -17.48,2.18 -26.18,1.52 -8.72,-0.68 -17.27,-2.35 -25.58,-4.53 -8.31,-2.19 -16.38,-4.94 -24.26,-7.99 -15.74,-6.13 -30.69,-13.51 -45.17,-21.3 -14.48,-7.8 -28.49,-16.05 -42.29,-24.28 -13.8,-8.23 -27.4,-16.46 -41.01,-24.19 -13.61,-7.71 -27.25,-14.93 -41.11,-20.59 -6.94,-2.79 -13.92,-5.21 -20.96,-6.85 -3.52,-0.83 -7.06,-1.48 -10.6,-1.89 -1.77,-0.2 -3.55,-0.37 -5.32,-0.44 l -2.51,-0.11 c -0.79,0.01 -1.61,-0.02 -2.38,0.04 -3.16,0.12 -6.15,0.7 -8.72,1.9 -2.63,1.13 -4.81,2.93 -6.41,5.53 -1.57,2.6 -2.38,6.08 -2.25,9.82 0.03,1.88 0.28,3.82 0.69,5.77 0.43,1.95 1,3.92 1.66,5.91 z"
           id="path72" />
      </g>
      <g
         id="g87">
        <path
           class="st4"
           d="m 549.58,464.94 c 0.08,-0.55 0.16,-1.08 0.24,-1.61 0.2,-1.34 0.41,-2.69 0.61,-4.03 0.22,-1.5 0.44,-2.99 0.64,-4.49 0.04,-0.34 -0.01,-0.69 -0.04,-1.04 -0.07,-0.88 -0.16,-1.76 -0.24,-2.64 0,-0.03 -0.01,-0.06 -0.02,-0.1 -0.05,0.02 -0.08,0.03 -0.11,0.05 -1.69,0.9 -3.41,1.74 -5.17,2.51 -1.47,0.65 -2.96,1.25 -4.49,1.76 -0.41,0.14 -0.71,0.34 -0.93,0.72 -0.73,1.25 -1.51,2.46 -2.27,3.69 -0.06,0.09 -0.15,0.17 -0.24,0.23 -0.2,0.14 -0.42,0.26 -0.63,0.39 -0.04,0.02 -0.08,0.05 -0.12,0.06 -0.07,0.02 -0.14,0.02 -0.21,0.03 -0.01,-0.06 -0.03,-0.13 -0.02,-0.19 0.19,-1.17 0.39,-2.33 0.59,-3.5 0,-0.02 0,-0.04 0.01,-0.08 -0.47,0.14 -0.68,-0.21 -0.97,-0.42 -0.03,-0.02 -0.04,-0.11 -0.02,-0.16 0.04,-0.12 0.1,-0.24 0.15,-0.37 -1.49,-0.32 -2.95,-0.64 -4.45,-0.96 0.05,-0.05 0.08,-0.09 0.12,-0.11 0.39,-0.25 0.77,-0.51 1.18,-0.73 0.19,-0.1 0.42,-0.16 0.64,-0.19 2.19,-0.25 4.38,-0.5 6.57,-0.75 0.07,-0.01 0.14,-0.03 0.2,-0.06 2.6,-1.56 5.2,-3.12 7.81,-4.69 0.04,-0.02 0.08,-0.05 0.14,-0.09 -0.3,-0.21 -0.6,-0.39 -0.87,-0.61 -0.46,-0.36 -1.04,-0.5 -1.56,-0.73 -0.14,-0.06 -0.26,-0.08 -0.4,-0.01 -0.08,0.04 -0.18,0.05 -0.28,0.07 -0.23,0.03 -0.33,-0.09 -0.24,-0.29 0.01,-0.03 0.02,-0.06 0.04,-0.1 -1.35,-0.53 -2.69,-1.05 -4.08,-1.59 0.29,-0.12 0.46,-0.34 0.77,-0.35 0.93,-0.04 1.86,0.07 2.78,0.13 0.72,0.04 1.44,0.1 2.16,0.14 0.08,0 0.17,-0.02 0.23,-0.06 0.5,-0.29 0.99,-0.58 1.49,-0.87 0.26,-0.15 0.46,-0.11 0.66,0.12 0.01,0.01 0.02,0.02 0.02,0.03 0.08,0.15 0.2,0.29 0.23,0.45 0.04,0.2 -0.22,0.22 -0.34,0.33 -0.06,0.05 -0.12,0.09 -0.21,0.15 0.07,0.01 0.11,0.02 0.15,0.02 0.43,0.03 0.86,0.05 1.29,0.09 0.15,0.01 0.26,-0.02 0.38,-0.09 0.49,-0.29 0.97,-0.57 1.47,-0.84 0.12,-0.07 0.27,-0.11 0.41,-0.15 0.21,-0.07 0.4,-0.02 0.53,0.14 0.15,0.19 0.28,0.4 0.4,0.61 0.06,0.11 0.03,0.2 -0.08,0.28 -0.13,0.09 -0.25,0.17 -0.39,0.27 0.12,0.06 0.22,0.04 0.33,-0.02 1.82,-1.08 3.65,-2.16 5.47,-3.23 0.56,-0.33 1.13,-0.63 1.68,-0.97 0.45,-0.27 0.95,-0.35 1.46,-0.42 0.41,-0.06 0.82,-0.09 1.23,-0.12 0.2,-0.01 0.41,0 0.61,0.03 0.35,0.06 0.5,0.29 0.39,0.59 -0.07,0.21 -0.18,0.42 -0.32,0.6 -0.51,0.71 -1.17,1.29 -1.84,1.86 -1.63,1.37 -3.36,2.61 -5.14,3.79 -0.16,0.11 -0.26,0.22 -0.31,0.4 -0.31,1.03 -0.64,2.06 -0.96,3.1 -0.01,0.04 -0.02,0.08 -0.04,0.14 0.23,-0.15 0.43,-0.3 0.65,-0.42 0.27,-0.15 0.55,-0.29 0.85,-0.39 0.38,-0.13 0.56,-0.05 0.77,0.27 0.09,0.14 0.16,0.29 0.25,0.43 0.13,0.21 0.05,0.39 -0.1,0.56 -0.57,0.64 -1.29,1.1 -2.06,1.51 -0.33,0.17 -0.67,0.32 -1,0.49 -0.07,0.04 -0.14,0.11 -0.16,0.17 -0.19,0.57 -0.36,1.14 -0.54,1.71 -0.05,0.18 0.03,0.29 0.23,0.28 0.12,-0.01 0.26,-0.04 0.36,-0.1 0.23,-0.12 0.45,-0.26 0.68,-0.39 0.29,-0.16 0.51,-0.14 0.75,0.09 0.29,0.28 0.42,0.64 0.52,1.01 0.02,0.05 -0.05,0.15 -0.1,0.19 -0.48,0.43 -1.04,0.78 -1.61,1.09 -0.55,0.3 -1.11,0.58 -1.67,0.87 -0.06,0.03 -0.13,0.1 -0.15,0.17 -0.4,1.27 -0.76,2.56 -1.2,3.82 -0.31,0.89 -0.86,1.66 -1.71,2.22 -0.26,0.15 -0.53,0.25 -0.85,0.3 z"
           id="path76" />
        <linearGradient
           id="linearGradient241"
           gradientUnits="userSpaceOnUse"
           x1="1572.2738"
           y1="-69.380096"
           x2="1602.8998"
           y2="-69.380096"
           gradientTransform="matrix(0.4807,-0.8769,0.8769,0.4807,-153.7313,1872.6613)">
          <stop
             offset="0"
             style="stop-color:#FF002B"
             id="stop235" />
          <stop
             offset="0.5441"
             style="stop-color:#FAFFE8"
             id="stop237" />
          <stop
             offset="1"
             style="stop-color:#70C4D4"
             id="stop239" />
        </linearGradient>
        <path
           style="fill:url(#SVGID_00000165222630930098587830000012266459005389355454_)"
           d="m 550.27,462.92 c 0.08,-0.55 0.16,-1.08 0.24,-1.61 0.2,-1.34 0.41,-2.69 0.61,-4.03 0.22,-1.5 0.44,-2.99 0.64,-4.49 0.04,-0.34 -0.01,-0.69 -0.04,-1.04 -0.07,-0.88 -0.16,-1.76 -0.24,-2.64 0,-0.03 -0.01,-0.06 -0.02,-0.1 -0.05,0.02 -0.08,0.03 -0.11,0.05 -1.69,0.9 -3.41,1.74 -5.17,2.51 -1.47,0.65 -2.96,1.25 -4.49,1.76 -0.41,0.14 -0.71,0.34 -0.93,0.72 -0.73,1.25 -1.51,2.46 -2.27,3.69 -0.06,0.09 -0.15,0.17 -0.24,0.23 -0.2,0.14 -0.42,0.26 -0.63,0.39 -0.04,0.02 -0.08,0.05 -0.12,0.06 -0.07,0.02 -0.14,0.02 -0.21,0.03 -0.01,-0.06 -0.03,-0.13 -0.02,-0.19 0.19,-1.17 0.39,-2.33 0.59,-3.5 0,-0.02 0,-0.04 0.01,-0.08 -0.47,0.14 -0.68,-0.21 -0.97,-0.42 -0.03,-0.02 -0.04,-0.11 -0.02,-0.16 0.04,-0.12 0.1,-0.24 0.15,-0.37 -1.49,-0.32 -2.95,-0.64 -4.45,-0.96 0.05,-0.05 0.08,-0.09 0.12,-0.11 0.39,-0.25 0.77,-0.51 1.18,-0.73 0.19,-0.1 0.42,-0.16 0.64,-0.19 2.19,-0.25 4.38,-0.5 6.57,-0.75 0.07,-0.01 0.14,-0.03 0.2,-0.06 2.6,-1.56 5.2,-3.12 7.81,-4.69 0.04,-0.02 0.08,-0.05 0.14,-0.09 -0.3,-0.21 -0.6,-0.39 -0.87,-0.61 -0.46,-0.36 -1.04,-0.5 -1.56,-0.73 -0.14,-0.06 -0.26,-0.08 -0.4,-0.01 -0.08,0.04 -0.18,0.05 -0.28,0.07 -0.23,0.03 -0.33,-0.09 -0.24,-0.29 0.01,-0.03 0.02,-0.06 0.04,-0.1 -1.35,-0.53 -2.69,-1.05 -4.08,-1.59 0.29,-0.12 0.46,-0.34 0.77,-0.35 0.93,-0.04 1.86,0.07 2.78,0.13 0.72,0.04 1.44,0.1 2.16,0.14 0.08,0 0.17,-0.02 0.23,-0.06 0.5,-0.29 0.99,-0.58 1.49,-0.87 0.26,-0.15 0.46,-0.11 0.66,0.12 0.01,0.01 0.02,0.02 0.02,0.03 0.08,0.15 0.2,0.29 0.23,0.45 0.04,0.2 -0.22,0.22 -0.34,0.33 -0.06,0.05 -0.12,0.09 -0.21,0.15 0.07,0.01 0.11,0.02 0.15,0.02 0.43,0.03 0.86,0.05 1.29,0.09 0.15,0.01 0.26,-0.02 0.38,-0.09 0.49,-0.29 0.97,-0.57 1.47,-0.84 0.12,-0.07 0.27,-0.11 0.41,-0.15 0.21,-0.07 0.4,-0.02 0.53,0.14 0.15,0.19 0.28,0.4 0.4,0.61 0.06,0.11 0.03,0.2 -0.08,0.28 -0.13,0.09 -0.25,0.17 -0.39,0.27 0.12,0.06 0.22,0.04 0.33,-0.02 1.82,-1.08 3.65,-2.16 5.47,-3.23 0.56,-0.33 1.13,-0.63 1.68,-0.97 0.45,-0.27 0.95,-0.35 1.46,-0.42 0.41,-0.06 0.82,-0.09 1.23,-0.12 0.2,-0.01 0.41,0 0.61,0.03 0.35,0.06 0.5,0.29 0.39,0.59 -0.07,0.21 -0.18,0.42 -0.32,0.6 -0.51,0.71 -1.17,1.29 -1.84,1.86 -1.63,1.37 -3.36,2.61 -5.14,3.79 -0.16,0.11 -0.26,0.22 -0.31,0.4 -0.31,1.03 -0.64,2.06 -0.96,3.1 -0.01,0.04 -0.02,0.08 -0.04,0.14 0.23,-0.15 0.43,-0.3 0.65,-0.42 0.27,-0.15 0.55,-0.29 0.85,-0.39 0.38,-0.13 0.56,-0.05 0.77,0.27 0.09,0.14 0.16,0.29 0.25,0.43 0.13,0.21 0.05,0.39 -0.1,0.56 -0.57,0.64 -1.29,1.1 -2.06,1.51 -0.33,0.17 -0.67,0.32 -1,0.49 -0.07,0.04 -0.14,0.11 -0.16,0.17 -0.19,0.57 -0.36,1.14 -0.54,1.71 -0.05,0.18 0.03,0.29 0.23,0.28 0.12,-0.01 0.26,-0.04 0.36,-0.1 0.23,-0.12 0.45,-0.26 0.68,-0.39 0.29,-0.16 0.51,-0.14 0.75,0.09 0.29,0.28 0.42,0.64 0.52,1.01 0.02,0.05 -0.05,0.15 -0.1,0.19 -0.48,0.43 -1.04,0.78 -1.61,1.09 -0.55,0.3 -1.11,0.58 -1.67,0.87 -0.06,0.03 -0.13,0.1 -0.15,0.17 -0.4,1.27 -0.76,2.56 -1.2,3.82 -0.31,0.89 -0.86,1.66 -1.71,2.22 -0.26,0.15 -0.53,0.25 -0.85,0.3 z"
           id="path85" />
      </g>
    </g>
  </g>
</svg>
